<svg version="1.1" id="Layer_1" xmlns="http://www.w3.org/2000/svg" xmlns:xlink="http://www.w3.org/1999/xlink" x="0px" y="0px"
	 width="100%" viewBox="0 0 361 325" enable-background="new 0 0 361 325" xml:space="preserve">
<path fill="#000000" opacity="1.000000" stroke="none" 
	d="
M1.000000,121.000000 
	C1.000000,80.666672 1.000000,40.833347 1.000000,1.000016 
	C121.333305,1.000011 241.666611,1.000011 361.999939,1.000005 
	C361.999939,109.333282 361.999939,217.666565 361.999969,325.999878 
	C241.666733,325.999939 121.333473,325.999939 1.000104,325.999969 
	C1.000000,257.833344 1.000000,189.666672 1.000000,121.000000 
M128.000214,177.005676 
	C128.000214,177.005676 127.927063,177.016953 128.002808,177.719040 
	C135.808945,186.111389 142.617798,195.988388 156.664597,197.311478 
	C152.688751,191.155518 149.387955,186.044769 146.001709,180.192215 
	C143.372711,173.444870 140.743713,166.697540 138.015671,159.110962 
	C137.285538,154.411652 136.555405,149.712326 135.973221,144.174561 
	C135.663345,140.820953 135.353470,137.467331 135.777084,133.650467 
	C136.462250,127.767860 137.147415,121.885262 137.980682,115.210991 
	C139.337021,110.509560 140.693359,105.808136 142.701981,100.763588 
	C145.503418,95.192223 148.304855,89.620857 151.725296,83.741051 
	C153.684448,81.183189 155.335251,78.290543 157.669846,76.140305 
	C161.935562,72.211449 166.605865,68.721878 171.744888,64.773209 
	C180.492859,59.796970 189.240845,54.820740 198.707657,49.782909 
	C219.796967,39.583096 242.225754,35.139122 266.033386,34.741158 
	C265.107361,33.705727 264.758026,33.080994 264.225555,32.763138 
	C262.557434,31.767403 260.820221,30.887365 258.769928,29.326801 
	C258.181610,29.047409 257.573151,28.803644 257.007935,28.483479 
	C236.948456,17.121086 215.227982,11.282844 192.361176,10.181394 
	C183.568970,9.757890 174.661835,11.145788 165.839874,12.034139 
	C147.135681,13.917607 130.005630,20.503839 113.252220,30.235741 
	C111.058105,31.514614 108.828667,32.737030 106.676941,34.083633 
	C101.539146,37.298988 98.135178,41.608967 97.810989,48.708675 
	C96.596153,54.139519 95.381317,59.570362 94.024162,65.865433 
	C93.738403,71.244179 93.452644,76.622925 93.024254,82.927750 
	C93.072235,88.616852 93.120224,94.305954 93.319023,100.793495 
	C94.424141,106.490845 95.529251,112.188194 96.953125,118.550613 
	C98.264160,122.714432 99.575195,126.878250 100.990059,131.697464 
	C101.048950,132.134262 101.107849,132.571075 101.098923,133.539322 
	C101.386726,133.733078 101.674538,133.926834 101.998055,134.886826 
	C103.985153,139.295639 105.972260,143.704468 108.012489,148.838226 
	C110.996185,153.595718 113.979889,158.353195 117.025871,163.812454 
	C120.342514,167.922623 123.659157,172.032791 127.129555,176.627823 
	C127.423492,176.778168 127.717430,176.928497 128.000214,177.005676 
M55.321262,95.369370 
	C53.274727,100.903564 51.228195,106.437767 49.023193,112.671272 
	C48.421394,114.430801 47.819595,116.190323 47.047699,118.758171 
	C42.420612,136.812286 41.850616,155.154434 44.204479,173.495728 
	C46.762756,193.429855 53.597721,212.035690 64.156296,229.166260 
	C66.529915,233.017288 68.949867,238.157516 72.604630,239.671066 
	C87.725182,245.932938 103.981750,248.244247 120.180702,247.675858 
	C132.266052,247.251801 144.482834,244.943466 156.240021,241.916489 
	C184.570786,234.622498 207.538742,218.512314 226.062042,196.117386 
	C228.486908,193.185684 228.936508,188.620224 230.531860,184.167068 
	C228.788177,184.473251 228.403366,184.429550 228.171753,184.597336 
	C205.109848,201.301697 179.730957,208.564590 151.405136,202.941025 
	C134.568420,199.598419 118.706001,193.671234 107.087921,180.350983 
	C100.497276,172.794724 95.149536,164.154388 89.023598,155.299988 
	C86.931976,151.068573 84.777161,146.866943 82.765434,142.597885 
	C80.481956,137.752106 78.326538,132.845993 76.026459,127.171387 
	C74.622505,121.787086 73.218559,116.402794 71.640610,110.255775 
	C70.705750,105.506195 69.770897,100.756607 68.956558,95.153984 
	C68.462570,88.409050 67.968575,81.664116 67.474586,74.919182 
	C66.943230,74.742996 66.411873,74.566811 65.880516,74.390625 
	C62.548813,81.244904 59.217113,88.099182 55.321262,95.369370 
M231.990326,138.841858 
	C233.646835,145.265610 235.303360,151.689346 236.996582,159.004669 
	C237.050781,165.395935 237.104965,171.787201 237.017715,179.020721 
	C234.860779,188.333954 233.666000,198.017532 230.265427,206.852066 
	C227.118439,215.027786 222.927231,223.601562 216.876434,229.698013 
	C203.003693,243.675522 186.185715,253.791824 167.759048,261.067474 
	C155.629135,265.856903 143.273972,269.667572 130.239456,271.018494 
	C122.678772,271.802063 115.131546,272.715485 106.949226,273.641663 
	C110.233223,275.748596 113.054192,277.572083 115.892738,279.367737 
	C116.438011,279.712677 117.065109,279.925323 117.632957,280.238007 
	C146.466415,296.115723 177.496735,300.292206 209.557922,295.749542 
	C231.649628,292.619446 251.964188,283.814575 270.308807,270.899902 
	C271.519989,270.047241 272.484283,268.473541 272.982483,267.034180 
	C279.918182,246.994858 281.490356,226.438507 279.066315,205.431763 
	C277.475342,191.644653 274.101868,178.427109 267.991272,165.189682 
	C266.364014,162.114426 264.736725,159.039154 262.998657,155.244888 
	C258.938690,149.172394 254.878708,143.099915 250.786713,136.351822 
	C243.710754,129.259598 236.669510,122.132278 229.543839,115.090363 
	C226.119629,111.706406 221.992737,110.411179 216.709732,111.369225 
	C218.022873,113.322456 219.196243,114.820412 220.106262,116.464157 
	C224.076401,123.635223 227.970016,130.848648 231.990326,138.841858 
M275.262238,138.729721 
	C278.825073,144.201202 282.387939,149.672684 286.057739,155.848328 
	C298.506287,179.873123 305.346985,205.369370 305.209991,233.793762 
	C306.895020,231.791946 307.624023,231.105927 308.140503,230.286026 
	C321.568207,208.970764 328.737457,185.645874 329.898956,160.551758 
	C330.226868,153.466705 329.702942,146.282867 328.896423,139.221237 
	C328.080536,132.077576 326.430359,125.029182 325.038239,117.145119 
	C323.970062,113.765587 322.901886,110.386047 321.913452,106.256294 
	C319.646729,101.156013 317.379974,96.055733 314.990509,90.237785 
	C312.364532,85.810394 309.738586,81.382996 306.989838,76.250931 
	C304.387970,73.213348 302.268768,68.278893 299.099182,67.472374 
	C286.565460,64.283089 273.785278,61.423214 260.935242,60.320419 
	C250.854691,59.455303 240.389252,60.503712 230.360260,62.237545 
	C216.755692,64.589531 203.386505,68.356133 190.725327,75.868263 
	C183.112396,80.896919 175.499451,85.925583 167.298752,91.270355 
	C162.495071,95.835320 157.691406,100.400284 152.299637,105.274429 
	C147.097839,110.156349 142.848160,115.501900 143.225403,122.575424 
	C153.144913,117.663017 163.069260,112.748222 173.730423,107.668198 
	C176.082260,106.988289 178.414963,106.231438 180.789154,105.641479 
	C192.412476,102.753235 204.182220,101.784279 216.005203,103.939720 
	C223.715775,105.345436 231.313217,107.371597 239.369690,109.687904 
	C247.233154,114.163948 255.096619,118.639992 263.269470,123.708145 
	C267.166107,128.511337 271.062744,133.314529 275.262238,138.729721 
z"/>
<path fill="#002F7A" opacity="1.000000" stroke="none" 
	d="
M89.242027,156.002304 
	C95.149536,164.154388 100.497276,172.794724 107.087921,180.350983 
	C118.706001,193.671234 134.568420,199.598419 151.405136,202.941025 
	C179.730957,208.564590 205.109848,201.301697 228.171753,184.597336 
	C228.403366,184.429550 228.788177,184.473251 230.531860,184.167068 
	C228.936508,188.620224 228.486908,193.185684 226.062042,196.117386 
	C207.538742,218.512314 184.570786,234.622498 156.240021,241.916489 
	C144.482834,244.943466 132.266052,247.251801 120.180702,247.675858 
	C103.981750,248.244247 87.725182,245.932938 72.604630,239.671066 
	C68.949867,238.157516 66.529915,233.017288 64.156296,229.166260 
	C53.597721,212.035690 46.762756,193.429855 44.204479,173.495728 
	C41.850616,155.154434 42.420612,136.812286 47.386124,118.557976 
	C50.403000,121.261673 53.081448,124.165565 55.897629,127.385635 
	C59.751202,131.657455 63.110134,136.045624 67.262581,139.472153 
	C74.326126,145.300858 81.888977,150.524445 89.242027,156.002304 
z"/>
<path fill="#008CFF" opacity="1.000000" stroke="none" 
	d="
M268.060333,165.915527 
	C274.101868,178.427109 277.475342,191.644653 279.066315,205.431763 
	C281.490356,226.438507 279.918182,246.994858 272.982483,267.034180 
	C272.484283,268.473541 271.519989,270.047241 270.308807,270.899902 
	C251.964188,283.814575 231.649628,292.619446 209.557922,295.749542 
	C177.496735,300.292206 146.466415,296.115723 117.632957,280.238007 
	C117.065109,279.925323 116.438011,279.712677 115.892738,279.367737 
	C113.054192,277.572083 110.233223,275.748596 106.949226,273.641663 
	C115.131546,272.715485 122.678772,271.802063 130.239456,271.018494 
	C143.273972,269.667572 155.629135,265.856903 167.759048,261.067474 
	C186.185715,253.791824 203.003693,243.675522 216.876434,229.698013 
	C222.927231,223.601562 227.118439,215.027786 230.265427,206.852066 
	C233.666000,198.017532 234.860779,188.333954 237.480026,178.567963 
	C247.981674,174.048630 258.020996,169.982086 268.060333,165.915527 
z"/>
<path fill="#002F7A" opacity="1.000000" stroke="none" 
	d="
M325.145630,117.939056 
	C326.430359,125.029182 328.080536,132.077576 328.896423,139.221237 
	C329.702942,146.282867 330.226868,153.466705 329.898956,160.551758 
	C328.737457,185.645874 321.568207,208.970764 308.140503,230.286026 
	C307.624023,231.105927 306.895020,231.791946 305.209991,233.793762 
	C305.346985,205.369370 298.506287,179.873123 286.313416,155.339981 
	C294.189606,148.257812 301.810150,141.683990 309.735107,135.005554 
	C314.110321,130.308212 318.181061,125.715469 322.502197,120.940460 
	C323.550232,119.818481 324.347931,118.878769 325.145630,117.939056 
z"/>
<path fill="#274F8E" opacity="1.000000" stroke="none" 
	d="
M152.887726,104.965240 
	C157.691406,100.400284 162.495071,95.835320 168.069031,91.122253 
	C217.597290,90.967911 266.355255,90.961685 315.113220,90.955452 
	C317.379974,96.055733 319.646729,101.156013 321.477539,106.536720 
	C320.070557,106.585503 319.099976,106.154053 318.128235,106.151398 
	C292.971039,106.082565 267.813446,106.014473 242.657120,106.158119 
	C241.419601,106.165184 240.193008,108.088692 238.961334,109.119820 
	C231.313217,107.371597 223.715775,105.345436 216.005203,103.939720 
	C204.182220,101.784279 192.412476,102.753235 180.789154,105.641479 
	C178.414963,106.231438 176.082260,106.988289 173.321625,107.372177 
	C171.309265,106.054230 169.722839,104.198586 168.098999,104.165237 
	C163.036179,104.061264 157.959213,104.646957 152.887726,104.965240 
z"/>
<path fill="#0D92FF" opacity="1.000000" stroke="none" 
	d="
M259.109802,29.962498 
	C260.820221,30.887365 262.557434,31.767403 264.225555,32.763138 
	C264.758026,33.080994 265.107361,33.705727 266.033386,34.741158 
	C242.225754,35.139122 219.796967,39.583096 198.158600,49.484619 
	C195.564301,48.790878 193.519836,48.055679 191.473663,48.050892 
	C160.371429,47.978142 129.268997,48.001011 98.166595,48.001530 
	C98.135178,41.608967 101.539146,37.298988 106.676941,34.083633 
	C108.828667,32.737030 111.058105,31.514614 114.004776,30.118080 
	C119.711990,30.333561 124.666069,30.945408 129.621384,30.955633 
	C168.329956,31.035522 207.038818,31.033339 245.747406,30.954206 
	C250.202194,30.945103 254.655701,30.308281 259.109802,29.962498 
z"/>
<path fill="#058EFF" opacity="1.000000" stroke="none" 
	d="
M258.939880,29.644650 
	C254.655701,30.308281 250.202194,30.945103 245.747406,30.954206 
	C207.038818,31.033339 168.329956,31.035522 129.621384,30.955633 
	C124.666069,30.945408 119.711990,30.333561 114.324036,29.981602 
	C130.005630,20.503839 147.135681,13.917607 165.839874,12.034139 
	C174.661835,11.145788 183.568970,9.757890 192.361176,10.181394 
	C215.227982,11.282844 236.948456,17.121086 257.007935,28.483479 
	C257.573151,28.803644 258.181610,29.047409 258.939880,29.644650 
z"/>
<path fill="#214A8B" opacity="1.000000" stroke="none" 
	d="
M315.051880,90.596619 
	C266.355255,90.961685 217.597290,90.967911 168.362915,90.964195 
	C175.499451,85.925583 183.112396,80.896919 191.508789,75.923279 
	C194.585327,76.318085 196.877975,76.950768 199.171494,76.953850 
	C235.151794,77.002312 271.132202,76.969620 307.112610,76.955597 
	C309.738586,81.382996 312.364532,85.810394 315.051880,90.596619 
z"/>
<path fill="#1A4488" opacity="1.000000" stroke="none" 
	d="
M307.051208,76.603264 
	C271.132202,76.969620 235.151794,77.002312 199.171494,76.953850 
	C196.877975,76.950768 194.585327,76.318085 191.842285,75.846497 
	C203.386505,68.356133 216.755692,64.589531 230.360260,62.237545 
	C240.389252,60.503712 250.854691,59.455303 260.935242,60.320419 
	C273.785278,61.423214 286.565460,64.283089 299.099182,67.472374 
	C302.268768,68.278893 304.387970,73.213348 307.051208,76.603264 
z"/>
<path fill="#1495FF" opacity="1.000000" stroke="none" 
	d="
M97.988792,48.355103 
	C129.268997,48.001011 160.371429,47.978142 191.473663,48.050892 
	C193.519836,48.055679 195.564301,48.790878 197.799194,49.515419 
	C189.240845,54.820740 180.492859,59.796970 171.034210,64.749153 
	C168.025543,64.483513 165.728165,64.039490 163.429428,64.032364 
	C144.967819,63.975117 126.505547,63.935112 108.044411,64.046036 
	C103.416687,64.073845 98.792358,64.667572 94.166473,65.001205 
	C95.381317,59.570362 96.596153,54.139519 97.988792,48.355103 
z"/>
<path fill="#1C99FF" opacity="1.000000" stroke="none" 
	d="
M94.095322,65.433319 
	C98.792358,64.667572 103.416687,64.073845 108.044411,64.046036 
	C126.505547,63.935112 144.967819,63.975117 163.429428,64.032364 
	C165.728165,64.039490 168.025543,64.483513 170.715485,64.887093 
	C166.605865,68.721878 161.935562,72.211449 157.669846,76.140305 
	C155.335251,78.290543 153.684448,81.183189 151.113403,83.644394 
	C148.313965,83.031891 146.129593,82.084740 143.938400,82.068710 
	C127.015305,81.944847 110.090889,82.001183 93.166878,82.001671 
	C93.452644,76.622925 93.738403,71.244179 94.095322,65.433319 
z"/>
<path fill="#2E5492" opacity="1.000000" stroke="none" 
	d="
M239.165512,109.403862 
	C240.193008,108.088692 241.419601,106.165184 242.657120,106.158119 
	C267.813446,106.014473 292.971039,106.082565 318.128235,106.151398 
	C319.099976,106.154053 320.070557,106.585503 321.437683,106.911827 
	C322.901886,110.386047 323.970062,113.765587 325.091919,117.542084 
	C324.347931,118.878769 323.550232,119.818481 322.092560,120.766754 
	C320.800293,120.582092 320.168762,120.222710 319.535583,120.219841 
	C301.980743,120.140312 284.425171,120.031281 266.871857,120.180458 
	C265.559692,120.191620 264.263611,122.093231 262.960083,123.116028 
	C255.096619,118.639992 247.233154,114.163948 239.165512,109.403862 
z"/>
<path fill="#249CFF" opacity="1.000000" stroke="none" 
	d="
M93.095566,82.464706 
	C110.090889,82.001183 127.015305,81.944847 143.938400,82.068710 
	C146.129593,82.084740 148.313965,83.031891 150.803894,83.798615 
	C148.304855,89.620857 145.503418,95.192223 142.162064,100.629120 
	C139.195740,99.664276 136.787979,98.188011 134.339645,98.117363 
	C124.681435,97.838646 115.004898,97.809242 105.346939,98.091087 
	C101.272308,98.209999 97.226898,99.330070 93.168205,99.995056 
	C93.120224,94.305954 93.072235,88.616852 93.095566,82.464706 
z"/>
<path fill="#345A95" opacity="1.000000" stroke="none" 
	d="
M263.114777,123.412086 
	C264.263611,122.093231 265.559692,120.191620 266.871857,120.180458 
	C284.425171,120.031281 301.980743,120.140312 319.535583,120.219841 
	C320.168762,120.222710 320.800293,120.582092 321.842224,120.949020 
	C318.181061,125.715469 314.110321,130.308212 309.222717,134.981064 
	C299.202942,135.041611 289.994171,134.843155 280.801788,135.144547 
	C278.823944,135.209396 276.905273,137.079285 274.959381,138.117706 
	C271.062744,133.314529 267.166107,128.511337 263.114777,123.412086 
z"/>
<path fill="#2B9FFF" opacity="1.000000" stroke="none" 
	d="
M93.243614,100.394272 
	C97.226898,99.330070 101.272308,98.209999 105.346939,98.091087 
	C115.004898,97.809242 124.681435,97.838646 134.339645,98.117363 
	C136.787979,98.188011 139.195740,99.664276 141.835922,100.800682 
	C140.693359,105.808136 139.337021,110.509560 137.546112,115.502220 
	C134.925491,115.197174 132.749451,114.133461 130.551605,114.086311 
	C121.495087,113.892006 112.419647,113.750320 103.379745,114.184410 
	C101.077354,114.294968 98.879982,116.592728 96.634369,117.885544 
	C95.529251,112.188194 94.424141,106.490845 93.243614,100.394272 
z"/>
<path fill="#32A2FF" opacity="1.000000" stroke="none" 
	d="
M96.793747,118.218079 
	C98.879982,116.592728 101.077354,114.294968 103.379745,114.184410 
	C112.419647,113.750320 121.495087,113.892006 130.551605,114.086311 
	C132.749451,114.133461 134.925491,115.197174 137.472061,115.898056 
	C137.147415,121.885262 136.462250,127.767860 135.387741,133.487625 
	C134.883347,129.490540 131.653885,129.193924 129.298111,129.277359 
	C119.818535,129.613083 110.355423,130.413406 100.886230,131.042068 
	C99.575195,126.878250 98.264160,122.714432 96.793747,118.218079 
z"/>
<path fill="#44ABFF" opacity="1.000000" stroke="none" 
	d="
M268.025818,165.552612 
	C258.020996,169.982086 247.981674,174.048630 237.550751,178.146820 
	C237.104965,171.787201 237.050781,165.395935 237.032349,158.179840 
	C239.226456,156.243423 241.406769,154.154648 243.539093,154.202530 
	C250.072433,154.349197 256.587372,155.316010 263.109467,155.963898 
	C264.736725,159.039154 266.364014,162.114426 268.025818,165.552612 
z"/>
<path fill="#39A6FF" opacity="1.000000" stroke="none" 
	d="
M100.938141,131.369766 
	C110.355423,130.413406 119.818535,129.613083 129.298111,129.277359 
	C131.653885,129.193924 134.883347,129.490540 135.020996,133.719254 
	C135.353470,137.467331 135.663345,140.820953 135.491180,144.552368 
	C127.612999,144.636536 120.211708,144.091522 112.824699,144.243103 
	C111.177147,144.276932 109.579811,146.758606 107.959358,148.113281 
	C105.972260,143.704468 103.985153,139.295639 101.870697,134.302490 
	C101.577675,133.459854 101.385483,133.223099 101.166748,133.007874 
	C101.107849,132.571075 101.048950,132.134262 100.938141,131.369766 
z"/>
<path fill="#3DA7FF" opacity="1.000000" stroke="none" 
	d="
M263.054077,155.604385 
	C256.587372,155.316010 250.072433,154.349197 243.539093,154.202530 
	C241.406769,154.154648 239.226456,156.243423 237.013992,157.734039 
	C235.303360,151.689346 233.646835,145.265610 232.277191,138.244812 
	C238.648956,137.440994 244.733841,137.234207 250.818741,137.027420 
	C254.878708,143.099915 258.938690,149.172394 263.054077,155.604385 
z"/>
<path fill="#3FA8FF" opacity="1.000000" stroke="none" 
	d="
M107.985924,148.475754 
	C109.579811,146.758606 111.177147,144.276932 112.824699,144.243103 
	C120.211708,144.091522 127.612999,144.636536 135.417206,144.971588 
	C136.555405,149.712326 137.285538,154.411652 137.638779,159.508636 
	C132.200226,159.614914 127.117516,158.949997 122.088264,159.233444 
	C120.312836,159.333527 118.668030,161.751160 116.963585,163.110687 
	C113.979889,158.353195 110.996185,153.595718 107.985924,148.475754 
z"/>
<path fill="#46ACFF" opacity="1.000000" stroke="none" 
	d="
M116.994728,163.461578 
	C118.668030,161.751160 120.312836,159.333527 122.088264,159.233444 
	C127.117516,158.949997 132.200226,159.614914 137.688309,159.928253 
	C140.743713,166.697540 143.372711,173.444870 145.637939,180.591949 
	C139.491806,179.666779 133.709442,178.341858 127.927063,177.016937 
	C127.927063,177.016953 128.000214,177.005676 127.890480,176.829620 
	C127.562698,176.404083 127.294380,176.233887 126.975792,176.142960 
	C123.659157,172.032791 120.342514,167.922623 116.994728,163.461578 
z"/>
<path fill="#3B5F99" opacity="1.000000" stroke="none" 
	d="
M275.110809,138.423706 
	C276.905273,137.079285 278.823944,135.209396 280.801788,135.144547 
	C289.994171,134.843155 299.202942,135.041611 308.918274,135.085663 
	C301.810150,141.683990 294.189606,148.257812 286.259918,154.987900 
	C282.387939,149.672684 278.825073,144.201202 275.110809,138.423706 
z"/>
<path fill="#305693" opacity="1.000000" stroke="none" 
	d="
M55.759892,127.069458 
	C53.081448,124.165565 50.403000,121.261673 47.471176,118.153816 
	C47.819595,116.190323 48.421394,114.430801 49.472893,112.159401 
	C57.219933,111.437851 64.517273,111.228172 71.814613,111.018494 
	C73.218559,116.402794 74.622505,121.787086 75.652771,127.494293 
	C68.772690,127.567947 62.266293,127.318703 55.759892,127.069458 
z"/>
<path fill="#33A3FF" opacity="1.000000" stroke="none" 
	d="
M250.802734,136.689621 
	C244.733841,137.234207 238.648956,137.440994 232.227722,137.847229 
	C227.970016,130.848648 224.076401,123.635223 220.106262,116.464157 
	C219.196243,114.820412 218.022873,113.322456 216.709732,111.369225 
	C221.992737,110.411179 226.119629,111.706406 229.543839,115.090363 
	C236.669510,122.132278 243.710754,129.259598 250.802734,136.689621 
z"/>
<path fill="#385C97" opacity="1.000000" stroke="none" 
	d="
M55.897629,127.385635 
	C62.266293,127.318703 68.772690,127.567947 75.697266,127.891647 
	C78.326538,132.845993 80.481956,137.752106 82.765434,142.597885 
	C84.777161,146.866943 86.931976,151.068573 89.132812,155.651154 
	C81.888977,150.524445 74.326126,145.300858 67.262581,139.472153 
	C63.110134,136.045624 59.751202,131.657455 55.897629,127.385635 
z"/>
<path fill="#29518F" opacity="1.000000" stroke="none" 
	d="
M71.727615,110.637131 
	C64.517273,111.228172 57.219933,111.437851 49.552124,111.809746 
	C51.228195,106.437767 53.274727,100.903564 56.065277,95.170975 
	C60.818203,95.317398 64.827118,95.662209 68.836037,96.007027 
	C69.770897,100.756607 70.705750,105.506195 71.727615,110.637131 
z"/>
<path fill="#2C5391" opacity="1.000000" stroke="none" 
	d="
M152.593689,105.119835 
	C157.959213,104.646957 163.036179,104.061264 168.098999,104.165237 
	C169.722839,104.198586 171.309265,106.054230 172.953201,107.454788 
	C163.069260,112.748222 153.144913,117.663017 143.225403,122.575424 
	C142.848160,115.501900 147.097839,110.156349 152.593689,105.119835 
z"/>
<path fill="#008CFF" opacity="1.000000" stroke="none" 
	d="
M127.964935,177.367981 
	C133.709442,178.341858 139.491806,179.666779 145.680664,180.962845 
	C149.387955,186.044769 152.688751,191.155518 156.664597,197.311478 
	C142.617798,195.988388 135.808945,186.111389 127.964935,177.367981 
z"/>
<path fill="#214A8B" opacity="1.000000" stroke="none" 
	d="
M68.896301,95.580505 
	C64.827118,95.662209 60.818203,95.317398 56.347351,94.963013 
	C59.217113,88.099182 62.548813,81.244904 65.880516,74.390625 
	C66.411873,74.566811 66.943230,74.742996 67.474586,74.919182 
	C67.968575,81.664116 68.462570,88.409050 68.896301,95.580505 
z"/>
<path fill="#32A2FF" opacity="1.000000" stroke="none" 
	d="
M101.132835,133.273590 
	C101.385483,133.223099 101.577675,133.459854 101.852844,133.919373 
	C101.674538,133.926834 101.386726,133.733078 101.132835,133.273590 
z"/>
<path fill="#008CFF" opacity="1.000000" stroke="none" 
	d="
M127.052673,176.385391 
	C127.294380,176.233887 127.562698,176.404083 127.896057,176.866180 
	C127.717430,176.928497 127.423492,176.778168 127.052673,176.385391 
z"/>
</svg>